#!OML:ASF F:\twosubjects\two\Thursday\Session 1\justin.ASF
:FULLY-SPECIFIED
:DEGREES
387
root 20.7999 18.5285 3.18472 5.91492 -81.6848 10.1736
lowerback 12.466 0.522019 0.800665
upperback 6.64516 0.496838 4.05875
thorax -0.0515705 0.0605047 3.71829
lowerneck -21.2998 -3.75219 -10.2477
upperneck 29.8321 -4.6915 7.60129
head 14.2205 -2.27512 3.95179
rclavicle -2.22639e-014 3.18055e-015
rhumerus 28.4072 25.9309 -47.6329
rradius 69.1906
rwrist 20.7411
rhand -42.0488 38.3252
rfingers 7.12502
rthumb -14.9421 8.88424
lclavicle -2.22639e-014 3.18055e-015
lhumerus 31.8672 -25.425 59.2229
lradius 57.288
lwrist -34.8747
lhand -32.6344 44.0223
lfingers 7.12502
lthumb -5.86125 73.9212
rfemur -29.4429 -5.6704 24.1121
rtibia 28.9762
rfoot -14.6815 -12.2064
rtoes -3.78192
lfemur -14.2058 0.957946 -13.1625
ltibia 5.83394
lfoot -3.44816 0.945644
ltoes -11.8648
388
root 20.8076 18.5214 3.19249 7.27807 -81.4597 8.9059
lowerback 12.583 0.418185 1.17286
upperback 6.64111 0.40013 4.10906
thorax -0.109773 0.018877 3.57254
lowerneck -21.2427 -3.79344 -10.3492
upperneck 29.7797 -4.73072 7.64555
head 14.1945 -2.29727 3.97875
rclavicle 1.35174e-014 -1.11319e-014
rhumerus 28.2506 26.416 -47.8323
rradius 69.0898
rwrist 21.0482
rhand -42.2049 39.287
rfingers 7.12502
rthumb -15.0926 9.85718
lclavicle 1.35174e-014 -1.11319e-014
lhumerus 31.5121 -25.5493 59.8391
lradius 57.3747
lwrist -35.2248
lhand -32.9406 45.0445
lfingers 7.12502
lthumb -6.15689 74.935
rfemur -29.582 -6.27218 24.5017
rtibia 28.9445
rfoot -14.4167 -11.9777
rtoes -5.4207
lfemur -14.48 0.775506 -12.9738
ltibia 6.00403
lfoot -3.65771 0.909651
ltoes -11.3188
389
root 20.8106 18.5123 3.19022 8.3421 -81.3424 7.90177
lowerback 12.6758 0.311751 1.31263
upperback 6.6835 0.271453 4.16012
thorax -0.106908 -0.045587 3.56377
lowerneck -21.3287 -3.6729 -10.3576
upperneck 29.8267 -4.52819 7.60207
head 14.2082 -2.21687 4.00162
rclavicle -1.59028e-015 3.02153e-014
rhumerus 28.2041 27.0071 -47.9208
rradius 69.197
rwrist 21.3842
rhand -43.1179 39.5861
rfingers 7.12502
rthumb -15.9719 10.2245
lclavicle -1.59028e-015 3.02153e-014
lhumerus 31.2087 -25.6141 60.3492
lradius 57.3209
lwrist -35.7848
lhand -33.3899 47.3866
lfingers 7.12502
lthumb -6.59059 77.264
rfemur -29.6498 -6.63006 24.8401
rtibia 28.9276
rfoot -14.2292 -11.9444
rtoes -7.09172
lfemur -14.6779 0.710652 -12.7707
ltibia 6.16158
lfoot -3.87841 0.928808
ltoes -9.38116
390
root 20.8148 18.5221 3.19273 8.37543 -81.1978 7.9787
lowerback 12.6212 0.19207 1.3929
upperback 6.79539 0.109057 4.16834
thorax 0.0493255 -0.12856 3.5469
lowerneck -21.3934 -3.57886 -10.3914
upperneck 29.7592 -4.37956 7.65678
head 14.1769 -2.14622 4.0558
rclavicle 2.06736e-014 4.77083e-014
rhumerus 28.3553 27.3829 -47.9432
rradius 69.2623
rwrist 21.7484
rhand -43.8591 39.8011
rfingers 7.12502
rthumb -16.6856 10.4983
lclavicle 2.06736e-014 4.77083e-014
lhumerus 31.1059 -25.4089 60.8302
lradius 57.3402
lwrist -36.0595
lhand -33.8783 50.4251
lfingers 7.12502
lthumb -7.06205 80.2872
rfemur -29.8102 -6.72495 24.7903
rtibia 28.8785
rfoot -14.3038 -11.8138
rtoes -5.82174
lfemur -15.0992 0.594821 -12.7656
ltibia 6.61515
lfoot -3.93732 0.984588
ltoes -8.89613
391
root 20.8171 18.5312 3.18626 8.52001 -81.2341 7.89098
lowerback 12.6168 0.289454 1.3603
upperback 6.92904 0.220245 4.15085
thorax 0.186213 -0.0777395 3.53325
lowerneck -21.3213 -3.64962 -10.1379
upperneck 29.5571 -4.57027 7.66509
head 14.0884 -2.19295 3.97273
rclavicle 7.15625e-015 1.59028e-015
rhumerus 28.4595 27.5722 -48.2037
rradius 69.0274
rwrist 21.4609
rhand -44.0673 41.2592
rfingers 7.12502
rthumb -16.886 11.9733
lclavicle 7.15625e-015 1.59028e-015
lhumerus 31.2438 -25.3243 61.3913
lradius 57.4524
lwrist -36.0886
lhand -34.3884 51.948
lfingers 7.12502
lthumb -7.55449 81.7931
rfemur -29.8829 -6.53282 24.7261
rtibia 28.8215
rfoot -14.4324 -11.6853
rtoes -4.24598
lfemur -15.364 0.657743 -12.74
ltibia 6.98874
lfoot -3.94636 1.04822
ltoes -8.93855
392
root 20.8147 18.5218 3.16746 8.76327 -81.5738 7.68288
lowerback 12.6683 0.536171 1.06311
upperback 7.05908 0.502457 4.13928
thorax 0.27746 0.0511206 3.65537
lowerneck -21.4669 -3.73333 -10.0079
upperneck 29.5914 -4.77182 7.79374
head 14.1586 -2.24375 3.96755
rclavicle 2.54444e-014 1.59028e-015
rhumerus 28.5272 27.7756 -48.4702
rradius 68.9323
rwrist 20.9169
rhand -44.2089 43.1178
rfingers 7.12502
rthumb -17.0222 13.8436
lclavicle 2.54444e-014 1.59028e-015
lhumerus 31.4382 -25.3221 61.898
lradius 57.5294
lwrist -36.3332
lhand -34.5287 51.5314
lfingers 7.12502
lthumb -7.68984 81.3716
rfemur -29.844 -6.35197 24.8758
rtibia 28.7503
rfoot -14.2946 -11.6596
rtoes -6.08904
lfemur -15.4253 1.02897 -12.6931
ltibia 7.21825
lfoot -4.11419 1.15803
ltoes -6.56895
